# xmcd CD database file
#
# Track frame offsets:
#	150
#	17141
#	34398
#	48057
#	63860
#	73511
#	89773
#	101939
#	121554
#	144155
#	169912
#	187245
#	198570
#	209822
#	229364
#	252896
#
# Disc length: 3562 seconds
#
# Revision: 2
# Processed by: cddbd v1.5.2PL0 Copyright (c) Steve Scherf et al.
# Submitted via: CDex 1.51
#
DISCID=f00de810
DTITLE=Eric Clapton - Most Famous Hits - The Album. CD2
DYEAR=2000
DGENRE=Blues
TTITLE0=(They Call It) Stormy Monday Blues
TTITLE1=Big Boss Man
TTITLE2=Jeff´s Blues
TTITLE3=Train Kept A Rollin
TTITLE4=Tribute To Elmore
TTITLE5=Little Red Rooster
TTITLE6=Highway 49
TTITLE7=Wang-Dang-Doodle
TTITLE8=Five Long Years
TTITLE9=She´s So Respectable
TTITLE10=Who Do You Love
TTITLE11=I Got Love If You Want It
TTITLE12=Good Morning Little Schoolgirl
TTITLE13=I´m A Man
TTITLE14=23 Hours Too Long
TTITLE15=Out On The Water Coast
EXTD=YEAR: 2000
EXTT0=
EXTT1=
EXTT2=
EXTT3=
EXTT4=
EXTT5=
EXTT6=
EXTT7=
EXTT8=
EXTT9=
EXTT10=
EXTT11=
EXTT12=
EXTT13=
EXTT14=
EXTT15=
PLAYORDER=
